<svg width="0" height="0" class="hidden">
  <symbol version="1.1" id="download" xmlns="http://www.w3.org/2000/svg" xmlns:xlink="http://www.w3.org/1999/xlink" x="0px" y="0px" enable-background="new 0 0 42 32" xml:space="preserve" viewBox="0 0 42 32">
    <g>
      <path fill="#e84545" d="M33.958,12.982C33.528,6.372,28.931,0,20.5,0c-1.029,0-2.044,0.1-3.018,0.297
		c-0.271,0.055-0.445,0.318-0.391,0.59c0.055,0.271,0.314,0.445,0.59,0.391C18.589,1.093,19.538,1,20.5,1C29.088,1,33,7.739,33,14
		v1.5c0,0.276,0.224,0.5,0.5,0.5s0.5-0.224,0.5-0.5V14c0-0.005-0.001-0.011-0.001-0.016C37.062,14.248,41,16.916,41,22.5
		c0,4.767-3.514,8.5-8,8.5H9c-3.976,0-8-2.92-8-8.5C1,18.406,3.504,14,9,14h1.5c0.276,0,0.5-0.224,0.5-0.5S10.776,13,10.5,13H9v-2
		c0-3.727,2.299-6.042,6-6.042c3.364,0,6,2.654,6,6.042v12.993l-4.16-3.86c-0.2-0.188-0.517-0.177-0.706,0.026
		c-0.188,0.202-0.177,0.519,0.026,0.706l4.516,4.189c0.299,0.298,0.563,0.445,0.827,0.445c0.261,0,0.52-0.145,0.808-0.433
		l4.529-4.202c0.203-0.188,0.215-0.504,0.026-0.706c-0.188-0.204-0.506-0.215-0.706-0.026L22,23.993V11c0-3.949-3.075-7.042-7-7.042
		c-4.252,0-7,2.764-7,7.042v2.051c-5.255,0.508-8,5.003-8,9.449C0,27.105,3.154,32,9,32h24c5.047,0,9-4.173,9-9.5
		C42,16.196,37.443,13.222,33.958,12.982z"></path>
    </g>
  </symbol>
  <symbol version="1.1" id="desktop" xmlns="http://www.w3.org/2000/svg" xmlns:xlink="http://www.w3.org/1999/xlink" x="0px" y="0px" enable-background="new 0 0 39 32" xml:space="preserve" viewBox="0 0 39 32">
    <g>
      <path fill="#e84545" d="M1.5,25H19v1.5c0,0.276,0.224,0.5,0.5,0.5s0.5-0.224,0.5-0.5V25h17.5c0.827,0,1.5-0.673,1.5-1.5v-22
		C39,0.673,38.327,0,37.5,0h-36C0.673,0,0,0.673,0,1.5v22C0,24.327,0.673,25,1.5,25z M1,1.5C1,1.224,1.224,1,1.5,1h36
		C37.776,1,38,1.224,38,1.5v22c0,0.276-0.224,0.5-0.5,0.5h-36C1.224,24,1,23.776,1,23.5V1.5z"></path>
      <path fill="#e84545" d="M3.5,22h32c0.276,0,0.5-0.224,0.5-0.5v-18C36,3.224,35.776,3,35.5,3h-32C3.224,3,3,3.224,3,3.5v18
		C3,21.776,3.224,22,3.5,22z M4,4h31v17H4V4z"></path>
      <path fill="#e84545" d="M14,28c-1.14,0-2,0.86-2,2v1.5c0,0.276,0.224,0.5,0.5,0.5h14c0.276,0,0.5-0.224,0.5-0.5v-1.425
		C27,28.912,26.122,28,25,28H14z M26,30.075V31H13v-1c0-0.589,0.411-1,1-1h11C25.57,29,26,29.462,26,30.075z"></path>
    </g>
  </symbol>
  <symbol version="1.1" id="lightbulb" xmlns="http://www.w3.org/2000/svg" xmlns:xlink="http://www.w3.org/1999/xlink" x="0px" y="0px" enable-background="new 0 0 22 32" xml:space="preserve" viewBox="0 0 22 32">
    <g>
      <path fill="#e84545" d="M11,0C5.71,0,0,4.206,0,11c0,3.353,1.334,6.174,3.896,8.312c0.027,0.034,0.058,0.063,0.092,0.088
		c1.901,2.062,1.997,2.454,2.01,3.361c0.006,0.359,0.003,0.465,0,0.523l-0.004,0.209c-0.015,0.452-0.038,1.209,0.899,1.495
		l8.094,1.781c0.036,0.008,0.072,0.012,0.107,0.012c0.23,0,0.437-0.159,0.488-0.393c0.06-0.27-0.111-0.537-0.381-0.596l-8.055-1.771
		c-0.155-0.047-0.168-0.051-0.154-0.498l0.003-0.191c0,0,0.01-0.078,0.002-0.586c-0.019-1.269-0.295-1.882-2.309-4.059
		c-0.039-0.048-0.086-0.088-0.138-0.118C2.194,16.566,1,14.02,1,11C1,4.823,6.19,1,11,1c4.916,0,10,3.741,10,10
		c0,3.978-1.928,6.171-3.518,7.551c-0.055,0.026-0.104,0.063-0.147,0.109c-2.037,2.204-2.313,2.817-2.332,4.086
		c0,0.03-0.001,0.065,0,0.103l-0.001,0.035c-0.003,0.076-0.014,0.118-0.013,0.134C14.955,23.013,14.872,23,14.872,23l-4.195-0.987
		c-0.272-0.062-0.538,0.104-0.601,0.372c-0.063,0.269,0.103,0.538,0.372,0.602l4.144,0.972c0.055,0.02,0.553,0.182,0.973-0.113
		c0.183-0.129,0.396-0.382,0.434-0.866l0.003-0.047c0.001-0.032,0.002-0.065,0.002-0.099c0-0.009,0-0.018-0.001-0.026l0.001-0.046
		c0.013-0.902,0.107-1.294,2.005-3.356c0.009-0.007,0.019-0.014,0.027-0.022C20.703,17.143,22,14.4,22,11C22,4.115,16.407,0,11,0z"></path>
      <path fill="#e84545" d="M15,29.5c0.229,0,0.435-0.157,0.487-0.39c0.062-0.269-0.107-0.537-0.377-0.598l-8-1.814
		c-0.271-0.06-0.537,0.108-0.598,0.377c-0.062,0.269,0.107,0.537,0.377,0.598l8,1.814C14.927,29.496,14.964,29.5,15,29.5z"></path>
      <path fill="#e84545" d="M7.609,29.554c-0.271-0.06-0.536,0.109-0.598,0.378c-0.06,0.27,0.109,0.537,0.379,0.597l6.5,1.458
		C13.928,31.996,13.964,32,14,32c0.229,0,0.436-0.158,0.488-0.391c0.06-0.27-0.109-0.537-0.379-0.597L7.609,29.554z"></path>
    </g>
  </symbol>
  <symbol version="1.1" id="genius" xmlns="http://www.w3.org/2000/svg" xmlns:xlink="http://www.w3.org/1999/xlink" x="0px" y="0px" enable-background="new 0 0 30 32" xml:space="preserve" viewBox="0 0 30 32">
    <g>
      <path fill="#e84545" d="M0.567,24c0.785,1.36,2.548,2.079,5.097,2.079c0,0,0,0,0.001,0c1.146,0,2.407-0.161,3.722-0.438
		C10.653,29.52,12.674,32,15,32s4.347-2.48,5.613-6.359c1.316,0.276,2.577,0.438,3.723,0.438c0,0,0,0,0,0
		c2.548,0,4.311-0.719,5.096-2.079c1.016-1.761,0.117-4.72-2.966-8c3.083-3.28,3.982-6.239,2.966-8
		c-0.785-1.36-2.548-2.079-5.097-2.079c-1.146,0-2.408,0.161-3.723,0.438C19.347,2.48,17.326,0,15,0s-4.347,2.48-5.613,6.359
		C8.071,6.082,6.809,5.921,5.664,5.921C3.115,5.921,1.352,6.64,0.567,8c-1.016,1.761-0.117,4.72,2.966,8
		C0.45,19.28-0.45,22.239,0.567,24z M15,31c-1.839,0-3.516-2.199-4.627-5.579c1.503-0.381,3.066-0.92,4.627-1.599
		c1.561,0.679,3.124,1.218,4.627,1.599C18.516,28.801,16.839,31,15,31z M9,16c0-1.164,0.062-2.297,0.168-3.393
		c0.893-0.622,1.837-1.228,2.832-1.803c0.984-0.568,1.991-1.077,3-1.533c1.009,0.455,2.016,0.964,3,1.533
		c0.995,0.574,1.938,1.18,2.832,1.803C20.938,13.703,21,14.836,21,16s-0.062,2.297-0.168,3.393
		c-0.893,0.622-1.837,1.228-2.832,1.803c-0.984,0.568-1.991,1.077-3,1.533c-1.009-0.455-2.016-0.964-3-1.533
		c-0.995-0.574-1.938-1.18-2.832-1.803C9.062,18.297,9,17.164,9,16z M8.098,18.623C6.952,17.762,5.914,16.878,5.012,16
		c0.902-0.878,1.94-1.762,3.086-2.623C8.039,14.231,8,15.102,8,16S8.039,17.769,8.098,18.623z M9.321,11.286
		c0.184-1.341,0.442-2.604,0.764-3.754c1.195,0.301,2.435,0.717,3.682,1.219C13.005,9.12,12.245,9.508,11.5,9.938
		C10.727,10.385,10.012,10.835,9.321,11.286z M16.232,8.751c1.247-0.502,2.487-0.918,3.682-1.219c0.322,1.15,0.58,2.413,0.764,3.754
		c-0.69-0.451-1.406-0.901-2.179-1.348C17.755,9.508,16.995,9.12,16.232,8.751z M21.902,13.377c1.147,0.861,2.184,1.744,3.086,2.623
		c-0.902,0.878-1.94,1.762-3.086,2.623C21.961,17.769,22,16.898,22,16S21.961,14.231,21.902,13.377z M20.679,20.714
		c-0.184,1.341-0.442,2.604-0.764,3.754c-1.195-0.301-2.435-0.717-3.682-1.219c0.763-0.368,1.523-0.757,2.268-1.187
		C19.273,21.615,19.988,21.165,20.679,20.714z M11.5,22.062c0.745,0.43,1.505,0.819,2.268,1.187
		c-1.247,0.502-2.487,0.918-3.682,1.219c-0.322-1.15-0.58-2.413-0.764-3.754C10.012,21.165,10.727,21.615,11.5,22.062z M28.567,23.5
		c-0.588,1.019-2.09,1.579-4.23,1.579c-1.056,0-2.218-0.146-3.432-0.395c0.396-1.424,0.693-3.008,0.877-4.708
		c1.546-1.084,2.851-2.168,3.94-3.229C28.254,19.429,29.448,21.973,28.567,23.5z M24.336,6.921c2.14,0,3.643,0.561,4.23,1.579
		c0.882,1.527-0.313,4.071-2.845,6.753c-1.089-1.06-2.394-2.145-3.94-3.229c-0.184-1.7-0.481-3.284-0.877-4.708
		C22.118,7.067,23.281,6.921,24.336,6.921z M15,1c1.839,0,3.516,2.199,4.627,5.579C18.124,6.96,16.561,7.499,15,8.178
		c-1.561-0.679-3.124-1.218-4.627-1.599C11.484,3.199,13.161,1,15,1z M1.433,8.5c0.588-1.019,2.09-1.579,4.23-1.579
		c1.056,0,2.218,0.146,3.432,0.395c-0.396,1.424-0.693,3.008-0.877,4.708c-1.546,1.084-2.851,2.168-3.94,3.229
		C1.746,12.571,0.552,10.027,1.433,8.5z M4.278,16.747c1.089,1.06,2.394,2.145,3.94,3.229c0.184,1.7,0.481,3.284,0.877,4.708
		c-1.213,0.249-2.375,0.395-3.431,0.395c0,0-0.001,0-0.001,0c-2.14,0-3.643-0.561-4.23-1.579
		C0.552,21.973,1.746,19.429,4.278,16.747z"></path>
      <path fill="#e84545" d="M15,18.5c1.378,0,2.5-1.121,2.5-2.5s-1.122-2.5-2.5-2.5s-2.5,1.121-2.5,2.5S13.622,18.5,15,18.5z M15,14.5
		c0.827,0,1.5,0.673,1.5,1.5s-0.673,1.5-1.5,1.5s-1.5-0.673-1.5-1.5S14.173,14.5,15,14.5z"></path>
    </g>
  </symbol>
  <symbol version="1.1" id="tools" xmlns="http://www.w3.org/2000/svg" xmlns:xlink="http://www.w3.org/1999/xlink" x="0px" y="0px" enable-background="new 0 0 31.87 32" xml:space="preserve" viewBox="0 0 31.87 32">
    <g>
      <path fill="#e84545" d="M0.646,5.646c-0.847,0.848-0.666,2.042,0.008,2.715c0.027,0.026,2.734,2.612,6.541,6.419
		c0.098,0.098,0.226,0.146,0.354,0.146s0.256-0.049,0.354-0.146c0.195-0.195,0.195-0.512,0-0.707
		c-0.574-0.574-1.12-1.117-1.638-1.631l1.589-1.589c0.195-0.195,0.195-0.512,0-0.707s-0.512-0.195-0.707,0l-1.593,1.593
		c-0.891-0.88-1.676-1.648-2.315-2.271l3.615-3.615c0.195-0.195,0.195-0.512,0-0.707s-0.512-0.195-0.707,0L2.521,8.772
		c-0.736-0.713-1.16-1.118-1.167-1.125c-0.211-0.211-0.488-0.805,0-1.293l5-5C6.547,1.158,7.061,0.769,7.625,1.33
		c0.025,0.028,2.55,2.896,6.404,6.75c0.195,0.195,0.512,0.195,0.707,0s0.195-0.512,0-0.707C10.906,3.544,8.4,0.698,8.354,0.646
		c-0.932-0.93-2.056-0.651-2.707,0L0.646,5.646z"></path>
      <path fill="#e84545" d="M21.854,24.146c-0.195-0.195-0.512-0.195-0.707,0l-1.591,1.59c-0.485-0.491-0.994-1.005-1.53-1.541
		c-0.195-0.195-0.512-0.195-0.707,0s-0.195,0.512,0,0.707c3.704,3.703,6.291,6.469,6.328,6.509c0.343,0.344,0.813,0.533,1.323,0.533
		h0c0.525,0,1.056-0.205,1.385-0.535l4.998-5.057c0.629-0.629,0.665-1.696,0.078-2.285l-6.706-6.705
		c-0.195-0.195-0.512-0.195-0.707,0s-0.195,0.512,0,0.707l6.706,6.705c0.2,0.2,0.162,0.632-0.079,0.873l-4.999,5.057
		c-0.115,0.116-0.376,0.24-0.676,0.24c0,0,0,0,0,0c-0.172,0-0.418-0.042-0.604-0.229c-0.01-0.011-0.429-0.458-1.156-1.219
		l3.644-3.644c0.195-0.195,0.195-0.512,0-0.707s-0.512-0.195-0.707,0l-3.629,3.629c-0.624-0.649-1.389-1.438-2.26-2.326l1.596-1.596
		C22.049,24.658,22.049,24.342,21.854,24.146z"></path>
      <path fill="#e84545" d="M0.142,31.829c0.096,0.098,0.225,0.15,0.358,0.15c0.048,0,0.096-0.007,0.143-0.021l10-2.979
		c0.081-0.024,0.153-0.067,0.212-0.127l17.09-17.205c0.024-0.024,0.036-0.055,0.054-0.082l3.656-3.656
		c0.294-0.295,0.457-0.686,0.457-1.103c0-0.416-0.163-0.807-0.457-1.1L26.42,0.472c-0.588-0.588-1.615-0.588-2.203,0l-3.739,3.739
		c-0.024,0.024-0.037,0.055-0.055,0.083L3.307,21.411c-0.056,0.056-0.098,0.124-0.122,0.199l-3.16,9.715
		C-0.033,31.502,0.012,31.695,0.142,31.829z M20.86,5.271l1.039,1.039L6.376,21.875l-1.727-0.392L20.86,5.271z M7,22.666
		L22.607,7.018l2.436,2.436L9.295,25H7V22.666z M26.884,11.296L10.64,27.65l-0.577-2.002L25.75,10.161L26.884,11.296z M3.993,22.359
		L6,22.815V25.5C6,25.776,6.224,26,6.5,26h2.624l0.634,2.2L1.27,30.729L3.993,22.359z M24.925,1.179
		c0.211-0.211,0.578-0.211,0.789,0l5.235,5.235c0.105,0.105,0.163,0.245,0.163,0.394c0,0.148-0.058,0.289-0.164,0.395l-3.371,3.372
		l-6.023-6.023L24.925,1.179z"></path>
    </g>
  </symbol>
  <symbol version="1.1" id="briefcase" xmlns="http://www.w3.org/2000/svg" xmlns:xlink="http://www.w3.org/1999/xlink" x="0px" y="0px" enable-background="new 0 0 38 32" xml:space="preserve" viewBox="0 0 38 32">
    <g>
      <path fill="#e84545" d="M37.5,18c-0.276,0-0.5,0.224-0.5,0.5v12c0,0.276-0.224,0.5-0.5,0.5h-35C1.224,31,1,30.776,1,30.5v-12
		C1,18.224,0.776,18,0.5,18S0,18.224,0,18.5v12C0,31.327,0.673,32,1.5,32h35c0.827,0,1.5-0.673,1.5-1.5v-12
		C38,18.224,37.776,18,37.5,18z"></path>
      <path fill="#e84545" d="M25.5,5C25.776,5,26,4.776,26,4.5v-3C26,0.673,25.327,0,24.5,0h-11C12.673,0,12,0.673,12,1.5v3
		C12,4.776,12.224,5,12.5,5S13,4.776,13,4.5v-3C13,1.224,13.224,1,13.5,1h11C24.776,1,25,1.224,25,1.5v3C25,4.776,25.224,5,25.5,5z"></path>
      <path fill="#e84545" d="M36.5,7h-35C0.673,7,0,7.673,0,8.5v4.958c0,2.778,9.456,6.5,19.125,6.5c9.543,0,18.875-3.722,18.875-6.5
		V8.5C38,7.673,37.327,7,36.5,7z M37,13.458c0,1.764-8.457,5.5-17.875,5.5C9.575,18.958,1,15.223,1,13.458V8.5
		C1,8.224,1.224,8,1.5,8h35C36.776,8,37,8.224,37,8.5V13.458z"></path>
      <path fill="#e84545" d="M19.125,23c0.943,0,1.923-0.039,2.914-0.116c0.275-0.021,0.481-0.262,0.459-0.538
		c-0.021-0.275-0.252-0.486-0.538-0.459c-2.014,0.157-3.909,0.15-5.919-0.02c-0.264-0.027-0.517,0.181-0.54,0.456
		c-0.023,0.275,0.181,0.517,0.456,0.54C17.033,22.954,18.099,23,19.125,23z"></path>
    </g>
  </symbol>
</svg>